<svg width="22" height="16" viewBox="0 0 22 16" fill="none" xmlns="http://www.w3.org/2000/svg">
<path d="M22 1.75C22 1.05859 21.2978 0.5 20.4286 0.5H1.57143C0.702233 0.5 4.76837e-07 1.05859 4.76837e-07 1.75C4.76837e-07 2.44141 0.702233 3 1.57143 3H20.4286C21.2978 3 22 2.44141 22 1.75ZM22 8C22 7.30859 21.2978 6.75 20.4286 6.75H1.57143C0.702233 6.75 4.76837e-07 7.30859 4.76837e-07 8C4.76837e-07 8.69141 0.702233 9.25 1.57143 9.25H20.4286C21.2978 9.25 22 8.69141 22 8ZM4.76837e-07 14.25C4.76837e-07 14.9414 0.702233 15.5 1.57143 15.5H20.4286C21.2978 15.5 22 14.9414 22 14.25C22 13.5586 21.2978 13 20.4286 13H1.57143C0.702233 13 4.76837e-07 13.5586 4.76837e-07 14.25Z" fill="white"/>
</svg>
