<svg width="54" height="50" viewBox="0 0 54 50" fill="none" xmlns="http://www.w3.org/2000/svg">
<g clip-path="url(#clip0_274_75)">
<path d="M27.0097 13.7695C19.3436 13.7695 13.1602 18.7793 13.1602 24.9902C13.1602 31.2012 19.3436 36.2109 27.0097 36.2109C34.6758 36.2109 40.8593 31.2012 40.8593 24.9902C40.8593 18.7793 34.6758 13.7695 27.0097 13.7695ZM27.0097 32.2852C22.0557 32.2852 18.0057 29.0137 18.0057 24.9902C18.0057 20.9668 22.0436 17.6953 27.0097 17.6953C31.9758 17.6953 36.0137 20.9668 36.0137 24.9902C36.0137 29.0137 31.9637 32.2852 27.0097 32.2852ZM44.6561 13.3105C44.6561 14.7656 43.2097 15.9277 41.4258 15.9277C39.6298 15.9277 38.1954 14.7559 38.1954 13.3105C38.1954 11.8652 39.6419 10.6934 41.4258 10.6934C43.2097 10.6934 44.6561 11.8652 44.6561 13.3105ZM53.8289 15.9668C53.624 12.4609 52.6356 9.35547 49.4655 6.79687C46.3075 4.23828 42.4745 3.4375 38.1472 3.26172C33.6874 3.05664 20.32 3.05664 15.8602 3.26172C11.545 3.42773 7.71194 4.22852 4.54185 6.78711C1.37176 9.3457 0.395425 12.4512 0.178461 15.957C-0.0746643 19.5703 -0.0746643 30.4004 0.178461 34.0137C0.383371 37.5195 1.37176 40.625 4.54185 43.1836C7.71194 45.7422 11.5329 46.543 15.8602 46.7187C20.32 46.9238 33.6874 46.9238 38.1472 46.7187C42.4745 46.5527 46.3075 45.7519 49.4655 43.1836C52.6236 40.625 53.612 37.5195 53.8289 34.0137C54.082 30.4004 54.082 19.5801 53.8289 15.9668ZM48.0673 37.8906C47.1271 39.8047 45.307 41.2793 42.9325 42.0508C39.3767 43.1934 30.9392 42.9297 27.0097 42.9297C23.0803 42.9297 14.6307 43.1836 11.0869 42.0508C8.72444 41.2891 6.90436 39.8144 5.95212 37.8906C4.54185 35.0098 4.8673 28.1738 4.8673 24.9902C4.8673 21.8066 4.55391 14.9609 5.95212 12.0898C6.8923 10.1758 8.71239 8.70117 11.0869 7.92969C14.6427 6.78711 23.0803 7.05078 27.0097 7.05078C30.9392 7.05078 39.3887 6.79687 42.9325 7.92969C45.295 8.69141 47.1151 10.166 48.0673 12.0898C49.4776 14.9707 49.1521 21.8066 49.1521 24.9902C49.1521 28.1738 49.4776 35.0195 48.0673 37.8906Z" fill="black"/>
</g>
<defs>
<clipPath id="clip0_274_75">
<rect width="54" height="50" fill="white"/>
</clipPath>
</defs>
</svg>
