<svg width="72" height="72" viewBox="0 0 72 72" fill="none" xmlns="http://www.w3.org/2000/svg">
<g clip-path="url(#clip0_265_2)">
<path d="M15.8906 23.0913H1.85625V71.9999H15.8906V23.0913Z" fill="white"/>
<path d="M8.57812 0C3.40313 0 0 3.64441 0 8.4832C0 13.2301 3.29063 16.9664 8.38125 16.9664H8.49375C13.7812 16.9664 17.0719 13.1995 17.0438 8.4832C16.9313 3.64441 13.7531 0 8.57812 0Z" fill="white"/>
<path d="M54.225 22.6318C46.1813 22.6318 41.1469 27.4094 40.2188 30.7782V23.0912H24.4406C24.6375 27.1644 24.4406 71.9998 24.4406 71.9998H40.2188V45.5702C40.2188 44.0695 40.1625 42.5995 40.5563 41.5583C41.625 38.6182 43.9594 35.5557 48.15 35.5557C53.6344 35.5557 56.1094 40.0882 56.1094 46.7033V71.9998H72.0281V44.8045C72.0281 29.6757 64.2094 22.6318 54.225 22.6318Z" fill="white"/>
</g>
<defs>
<clipPath id="clip0_265_2">
<rect width="72" height="72" fill="white"/>
</clipPath>
</defs>
</svg>
