<svg width="54" height="54" viewBox="0 0 54 54" fill="none" xmlns="http://www.w3.org/2000/svg">
<path d="M50.1429 3.375H3.84509C1.72366 3.375 0 4.9043 0 6.78164V47.2184C0 49.0957 1.72366 50.625 3.84509 50.625H50.1429C52.2643 50.625 54 49.0957 54 47.2184V6.78164C54 4.9043 52.2643 3.375 50.1429 3.375ZM16.3205 43.875H8.31696V21.3258H16.3326V43.875H16.3205ZM12.3187 18.2461C9.75134 18.2461 7.67813 16.4215 7.67813 14.1855C7.67813 11.9496 9.75134 10.125 12.3187 10.125C14.8741 10.125 16.9594 11.9496 16.9594 14.1855C16.9594 16.432 14.8862 18.2461 12.3187 18.2461ZM46.3219 43.875H38.3183V32.9062C38.3183 30.2906 38.258 26.9262 34.1598 26.9262C29.9893 26.9262 29.3504 29.7738 29.3504 32.7164V43.875H21.3469V21.3258H29.025V24.4055H29.1335C30.2063 22.6336 32.8219 20.7668 36.7152 20.7668C44.8152 20.7668 46.3219 25.4391 46.3219 31.5141V43.875Z" fill="black"/>
</svg>
