<svg width="54" height="50" viewBox="0 0 54 50" fill="none" xmlns="http://www.w3.org/2000/svg">
<path d="M51.5301 12.1175C50.9413 9.80791 49.2064 7.98896 47.0035 7.37168C43.0107 6.25 27 6.25 27 6.25C27 6.25 10.9894 6.25 6.99647 7.37168C4.79363 7.98906 3.05869 9.80791 2.46985 12.1175C1.39997 16.3037 1.39997 25.0379 1.39997 25.0379C1.39997 25.0379 1.39997 33.7721 2.46985 37.9583C3.05869 40.2679 4.79363 42.011 6.99647 42.6283C10.9894 43.75 27 43.75 27 43.75C27 43.75 43.0106 43.75 47.0035 42.6283C49.2064 42.011 50.9413 40.2679 51.5301 37.9583C52.6 33.7721 52.6 25.0379 52.6 25.0379C52.6 25.0379 52.6 16.3037 51.5301 12.1175ZM21.7636 32.9679V17.1079L35.1454 25.0381L21.7636 32.9679Z" fill="black"/>
</svg>
