<svg width="54" height="50" viewBox="0 0 54 50" fill="none" xmlns="http://www.w3.org/2000/svg">
<path d="M18.0617 38.8086C18.0617 39.0039 17.8113 39.1602 17.4956 39.1602C17.1363 39.1895 16.8859 39.0332 16.8859 38.8086C16.8859 38.6133 17.1363 38.457 17.452 38.457C17.7786 38.4277 18.0617 38.584 18.0617 38.8086ZM14.6758 38.3691C14.5996 38.5645 14.8173 38.7891 15.144 38.8477C15.427 38.9453 15.7536 38.8477 15.819 38.6523C15.8843 38.457 15.6774 38.2324 15.3508 38.1445C15.0677 38.0762 14.752 38.1738 14.6758 38.3691ZM19.4879 38.2031C19.1722 38.2715 18.9544 38.457 18.9871 38.6816C19.0198 38.877 19.3028 39.0039 19.6294 38.9355C19.9452 38.8672 20.1629 38.6816 20.1302 38.4863C20.0976 38.3008 19.8036 38.1738 19.4879 38.2031ZM26.6516 0.78125C11.5512 0.78125 0 11.0645 0 24.6094C0 35.4395 7.59919 44.707 18.4536 47.9688C19.8472 48.1934 20.3371 47.4219 20.3371 46.7871C20.3371 46.1816 20.3044 42.8418 20.3044 40.791C20.3044 40.791 12.6835 42.2559 11.0831 37.8809C11.0831 37.8809 9.84194 35.0391 8.05645 34.3066C8.05645 34.3066 5.56331 32.7734 8.23065 32.8027C8.23065 32.8027 10.9415 32.998 12.4331 35.3223C14.8173 39.0918 18.8129 38.0078 20.3698 37.3633C20.6202 35.8008 21.3278 34.7168 22.1117 34.0723C16.0258 33.4668 9.88548 32.6758 9.88548 23.2812C9.88548 20.5957 10.7129 19.248 12.4548 17.5293C12.1718 16.8945 11.2464 14.2773 12.7379 10.8984C15.0133 10.2637 20.25 13.5352 20.25 13.5352C22.4274 12.9883 24.7681 12.7051 27.0871 12.7051C29.406 12.7051 31.7468 12.9883 33.9242 13.5352C33.9242 13.5352 39.1609 10.2539 41.4363 10.8984C42.9278 14.2871 42.0024 16.8945 41.7194 17.5293C43.4613 19.2578 44.5282 20.6055 44.5282 23.2812C44.5282 32.7051 38.1157 33.457 32.0298 34.0723C33.0315 34.8437 33.8806 36.3086 33.8806 38.6035C33.8806 41.8945 33.848 45.9668 33.848 46.7676C33.848 47.4023 34.3488 48.1738 35.7315 47.9492C46.6185 44.707 54 35.4395 54 24.6094C54 11.0645 41.752 0.78125 26.6516 0.78125ZM10.5823 34.4629C10.4407 34.5605 10.4734 34.7852 10.6585 34.9707C10.8327 35.127 11.0831 35.1953 11.2246 35.0684C11.3661 34.9707 11.3335 34.7461 11.1484 34.5605C10.9742 34.4043 10.7238 34.3359 10.5823 34.4629ZM9.40645 33.6719C9.33024 33.7988 9.43911 33.9551 9.65685 34.0527C9.83105 34.1504 10.0488 34.1211 10.125 33.9844C10.2012 33.8574 10.0923 33.7012 9.8746 33.6035C9.65685 33.5449 9.48266 33.5742 9.40645 33.6719ZM12.9339 37.1484C12.7597 37.2754 12.825 37.5684 13.0754 37.7539C13.3258 37.9785 13.6415 38.0078 13.7831 37.8516C13.9246 37.7246 13.8593 37.4316 13.6415 37.2461C13.402 37.0215 13.0754 36.9922 12.9339 37.1484ZM11.6927 35.7129C11.5185 35.8105 11.5185 36.0645 11.6927 36.2891C11.8669 36.5137 12.1609 36.6113 12.3024 36.5137C12.4766 36.3867 12.4766 36.1328 12.3024 35.9082C12.15 35.6836 11.8669 35.5859 11.6927 35.7129Z" fill="black"/>
</svg>
